PathFileType  4	(X/Y/Z) C:\Users\antoi\Documents\MyRepositories\mobilecap\ResultsAnalysis
DataRate	CameraRate	NumFrames	NumMarkers	Units	OrigDataRate	OrigDataStartFrame	OrigNumFrames
100.0	100.0	4	51	mm	100.0	326	1302
Frame#	Time	r_knee			r_shank_antsup			r_ankle			r_calc			r_5meta			r_toe			L_knee			L_shank_antsup			L_ankle			L_calc			L_5meta			L_toe			r_sh2			r_sh3			r_sh4			L_sh2			L_sh3			r_thigh1			r_thigh2			r_thigh3			r_thigh4			r_thigh5			L_thigh1			L_thigh2			L_thigh3			L_thigh4			r.ASIS			r.PSIS			L.ASIS			L.PSIS			C7			R_Shoulder			L_Shoulder			R_Sternum			L_Sternum			R_humerus			R_elbow_med			R_elbow_lat			R_forearm			R_wrist_radius			R_wrist_ulna			L_humerus			L_elbow_med			L_elbow_lat			L_forearm			L_wrist_radius			L_wrist_ulna			R_HJC			L_HJC			R_HJC_reg			L_HJC_reg			
		X1	Y1	Z1	X2	Y2	Z2	X3	Y3	Z3	X4	Y4	Z4	X5	Y5	Z5	X6	Y6	Z6	X7	Y7	Z7	X8	Y8	Z8	X9	Y9	Z9	X10	Y10	Z10	X11	Y11	Z11	X12	Y12	Z12	X13	Y13	Z13	X14	Y14	Z14	X15	Y15	Z15	X16	Y16	Z16	X17	Y17	Z17	X18	Y18	Z18	X19	Y19	Z19	X20	Y20	Z20	X21	Y21	Z21	X22	Y22	Z22	X23	Y23	Z23	X24	Y24	Z24	X25	Y25	Z25	X26	Y26	Z26	X27	Y27	Z27	X28	Y28	Z28	X29	Y29	Z29	X30	Y30	Z30	X31	Y31	Z31	X32	Y32	Z32	X33	Y33	Z33	X34	Y34	Z34	X35	Y35	Z35	X36	Y36	Z36	X37	Y37	Z37	X38	Y38	Z38	X39	Y39	Z39	X40	Y40	Z40	X41	Y41	Z41	X42	Y42	Z42	X43	Y43	Z43	X44	Y44	Z44	X45	Y45	Z45	X46	Y46	Z46	X47	Y47	Z47	X48	Y48	Z48	X49	Y49	Z49	X50	Y50	Z50	X51	Y51	Z51	

326	3.25000000	-176.95932	485.01522	-434.16562	-125.65119	409.79586	-434.26569	-266.82763	97.45341	-427.32295	-336.29159	63.34205	-462.90900	-166.34865	44.61080	-390.32679	-119.40053	73.19652	-443.55867	-180.00546	478.69737	-930.61618	-137.16138	384.55285	-950.69497	-266.21341	98.88969	-927.51642	-330.83052	62.66810	-876.79869	-164.14168	42.21366	-970.13257	-121.27469	68.80884	-918.83326	-177.07815	307.76123	-410.69066	-199.18146	441.02896	-417.00837	-244.58235	338.72275	-408.21251	-221.46622	414.78409	-940.74739	-254.40844	296.05293	-949.86954	-382.16943	725.48169	-489.48169	-302.37807	651.33981	-469.00620	-323.50593	598.62891	-434.37656	-459.04559	644.82727	-464.98382	-369.84418	569.87909	-445.95170	-382.82047	666.94014	-928.11160	-265.19728	594.92267	-930.64534	-440.83907	572.24063	-884.88701	-319.07182	503.41071	-907.17655	-354.01933	715.72834	-571.21412	-473.74237	844.83583	-650.67674	-351.70332	705.38324	-807.05642	-474.71439	849.02311	-738.75755	-143.06306	1056.87366	-699.68472	-37.93041	1026.73421	-574.81977	-59.81312	1025.55803	-838.78706	-33.10634	949.29314	-677.44968	-32.29146	948.11030	-720.27341	14.69477	997.60197	-471.45607	124.05323	822.98422	-393.22751	131.82375	891.38769	-350.95117	213.68680	946.45769	-450.35129	288.88036	986.08998	-546.22604	320.64262	976.26137	-532.34439	-19.51070	994.57742	-928.37753	102.63387	807.79393	-1014.79722	95.49349	883.20804	-1053.36423	163.34017	929.82319	-979.53505	268.41829	982.51400	-892.14417	294.72013	975.95247	-913.42569	-456.79488	689.11461	-588.28156	-454.01652	686.19960	-794.71250	-448.18705	689.21181	-603.78937	-449.90452	696.61007	-759.41783	
327	3.26000000	-174.26900	483.73027	-433.28324	-122.95623	408.42999	-433.49276	-266.67518	97.32091	-427.55087	-336.25333	63.30054	-462.93659	-166.34097	44.65719	-390.23827	-119.30246	73.13636	-443.52490	-177.69043	477.73800	-932.20247	-134.88904	383.39830	-952.01060	-265.94344	98.83404	-927.55677	-330.70747	62.63918	-876.70091	-164.19695	41.57626	-969.44661	-121.19383	68.72221	-918.95773	-175.19793	306.64143	-410.32750	-196.13048	440.20819	-415.94240	-242.47310	338.16028	-407.35149	-219.03260	414.06022	-942.11988	-252.70501	295.54800	-950.72748	-382.60726	721.07763	-489.56270	-302.11448	648.45741	-468.52963	-322.42344	595.37595	-433.87182	-458.45149	639.48112	-464.90891	-368.35502	565.90539	-445.51726	-383.28133	662.92960	-928.69444	-264.65417	592.64792	-931.58837	-439.77938	567.17003	-885.47538	-317.09006	500.40702	-908.42808	-354.10199	710.94924	-571.32132	-475.04546	838.74406	-650.61065	-351.69035	701.25604	-808.01561	-476.03361	842.95656	-738.81086	-142.28182	1049.67476	-699.85986	-37.23744	1019.11325	-575.17056	-58.84738	1017.86017	-838.63582	-32.78327	941.40027	-677.52954	-32.01402	940.23539	-720.28540	15.30366	990.20325	-471.69705	124.47509	815.17605	-393.82027	132.39930	883.64339	-351.35950	213.79724	938.75995	-451.12864	288.40702	978.52468	-547.34437	320.31762	968.38036	-533.61590	-18.55824	986.95743	-928.20386	104.12767	800.02621	-1013.49110	96.88008	875.27933	-1052.68219	164.05083	921.94645	-978.35282	268.64133	975.31460	-890.62319	295.23039	968.67574	-911.47044	-456.41408	683.07088	-588.78573	-453.69394	680.78157	-795.22526	-448.13791	683.49587	-604.09914	-449.88714	690.95458	-760.26916	
328	3.27000000	-171.61764	482.37294	-432.46748	-120.30004	406.97192	-432.78270	-266.52936	97.39403	-427.45452	-336.22352	63.28872	-463.03883	-166.35665	44.70030	-390.20826	-119.17160	73.04998	-443.56307	-175.47650	476.64222	-933.67511	-132.78077	382.16243	-953.18154	-265.69903	98.73942	-927.49176	-330.71216	62.57874	-876.52512	-164.24507	41.20584	-969.05573	-121.12651	68.64741	-919.07211	-173.46496	305.48975	-409.94942	-193.16199	439.09897	-415.28224	-240.43624	337.59571	-406.79028	-216.68946	413.25156	-943.49964	-250.98995	294.92555	-951.55078	-382.93649	716.51043	-489.74305	-301.63366	645.02125	-468.07229	-321.31775	591.94898	-433.36692	-457.86117	633.96365	-464.92361	-366.88897	561.82173	-445.08014	-383.75013	658.62248	-928.80902	-264.14140	590.20278	-932.42566	-438.80189	561.93466	-886.10727	-315.05849	497.14347	-909.63484	-354.05602	706.06666	-571.39753	-476.34741	832.46779	-650.57021	-351.46780	696.84928	-808.64199	-477.38157	836.75814	-738.64688	-141.67953	1042.43017	-700.06021	-36.60807	1011.55768	-575.35049	-57.98051	1010.22155	-838.62840	-32.40951	933.68345	-677.71552	-31.75025	932.46357	-720.22843	15.89855	982.46612	-472.29741	124.90583	807.43106	-394.23436	133.00851	875.90152	-351.82106	213.88208	931.13250	-451.89568	287.89716	970.80360	-548.39677	320.00916	960.83979	-534.94415	-17.55968	979.20552	-927.88789	105.37931	792.39702	-1012.26266	98.28020	867.51051	-1051.95150	164.85755	914.30264	-977.31154	268.94549	968.13377	-889.19386	295.68398	961.56773	-909.72179	-455.90943	676.89477	-589.11243	-453.20933	675.11999	-795.55828	-447.81695	677.52332	-604.30849	-449.65463	685.14793	-760.82058	
329	3.28000000	-169.10530	481.07069	-431.68361	-117.76407	405.49904	-431.98760	-266.38291	97.68332	-427.18476	-336.21492	63.30063	-463.25579	-166.43641	44.71832	-390.23713	-119.12037	73.07428	-443.38784	-173.41252	475.19969	-934.89502	-130.80925	380.85062	-954.19591	-265.54066	98.65396	-927.36639	-330.69985	62.55692	-876.41945	-164.25676	41.45324	-969.49864	-121.07020	68.58703	-919.16955	-171.75294	304.35679	-409.62447	-190.46320	437.99647	-414.70062	-238.51371	337.17885	-406.67320	-214.54075	412.50616	-944.81309	-249.37804	294.38966	-952.40941	-383.36245	711.86679	-489.91574	-300.99818	641.28735	-467.75129	-320.30255	588.26466	-432.94972	-457.30031	628.39433	-464.92678	-365.46854	557.48157	-444.75675	-384.31032	654.19838	-929.12169	-263.61478	587.52643	-933.20154	-437.87031	556.57982	-886.55949	-313.11067	493.61891	-910.45930	-353.88932	701.07803	-571.28587	-477.59622	826.13917	-650.55238	-351.51882	692.03290	-808.87629	-478.77647	830.55242	-738.37408	-141.14523	1035.18395	-700.19237	-36.00910	1003.97791	-575.57802	-57.16419	1002.67037	-838.74106	-32.04520	926.01418	-677.80924	-31.28511	924.81198	-720.39919	16.49778	974.69337	-472.76621	125.41146	799.75440	-394.45957	133.65447	868.21374	-352.16087	213.93658	923.59328	-452.63059	287.33248	963.19140	-549.33960	319.59047	953.64054	-536.22723	-16.56643	971.47193	-927.61151	105.80703	784.62543	-1012.02246	99.71670	859.85376	-1051.12846	165.79167	906.89374	-976.44058	269.23420	960.78973	-887.46373	296.09808	954.63375	-908.19397	-455.44583	670.81036	-589.08248	-452.97355	669.19752	-795.53230	-447.44411	671.31720	-604.19517	-449.55081	679.19282	-760.91415	
